HIERARCHY
ROOT SimulationBone
{
	OFFSET 0.000000 0.000000 0.000000
	CHANNELS 6 Xposition Yposition Zposition Zrotation Yrotation Xrotation 
	JOINT Hips
	{
		OFFSET 0.000000 0.000000 0.000000
		CHANNELS 6 Xposition Yposition Zposition Zrotation Yrotation Xrotation 
		JOINT LeftUpLeg
		{
			OFFSET 0.103457 1.857834 10.548504
			CHANNELS 3 Zrotation Yrotation Xrotation
			JOINT LeftLeg
			{
				OFFSET 43.499996 -0.000046 0.000000
				CHANNELS 3 Zrotation Yrotation Xrotation
				JOINT LeftFoot
				{
					OFFSET 42.372192 0.000027 0.000002
					CHANNELS 3 Zrotation Yrotation Xrotation
					JOINT LeftToe
					{
						OFFSET 17.299994 -0.000003 -0.000001
						CHANNELS 3 Zrotation Yrotation Xrotation
						End Site
						{
							OFFSET 0.000000 0.000000 0.000000
						}
					}
				}
			}
		}
		JOINT RightUpLeg
		{
			OFFSET 0.103456 1.857832 -10.548504
			CHANNELS 3 Zrotation Yrotation Xrotation
			JOINT RightLeg
			{
				OFFSET 43.500046 -0.000011 0.000010
				CHANNELS 3 Zrotation Yrotation Xrotation
				JOINT RightFoot
				{
					OFFSET 42.372261 -0.000034 0.000021
					CHANNELS 3 Zrotation Yrotation Xrotation
					JOINT RightToe
					{
						OFFSET 17.300011 0.000001 0.000002
						CHANNELS 3 Zrotation Yrotation Xrotation
						End Site
						{
							OFFSET 0.000000 0.000000 0.000000
						}
					}
				}
			}
		}
		JOINT Spine
		{
			OFFSET 6.901965 -2.603721 0.000001
			CHANNELS 3 Zrotation Yrotation Xrotation
			JOINT Spine1
			{
				OFFSET 12.588100 0.000000 -0.000000
				CHANNELS 3 Zrotation Yrotation Xrotation
				JOINT Spine2
				{
					OFFSET 12.343206 0.000005 0.000000
					CHANNELS 3 Zrotation Yrotation Xrotation
					JOINT Neck
					{
						OFFSET 25.832893 -0.000008 0.000000
						CHANNELS 3 Zrotation Yrotation Xrotation
						JOINT Head
						{
							OFFSET 11.766617 0.000009 0.000001
							CHANNELS 3 Zrotation Yrotation Xrotation
							End Site
							{
								OFFSET 0.000000 0.000000 0.000000
							}
						}
					}
					JOINT LeftShoulder
					{
						OFFSET 19.745899 -1.480394 6.000106
						CHANNELS 3 Zrotation Yrotation Xrotation
						JOINT LeftArm
						{
							OFFSET 11.284122 -0.000030 -0.000014
							CHANNELS 3 Zrotation Yrotation Xrotation
							JOINT LeftForeArm
							{
								OFFSET 33.000050 0.000020 0.000016
								CHANNELS 3 Zrotation Yrotation Xrotation
								JOINT LeftHand
								{
									OFFSET 25.200014 -0.000003 0.000011
									CHANNELS 3 Zrotation Yrotation Xrotation
									End Site
									{
										OFFSET 0.000000 0.000000 0.000000
									}
								}
							}
						}
					}
					JOINT RightShoulder
					{
						OFFSET 19.746094 -1.480381 -6.000073
						CHANNELS 3 Zrotation Yrotation Xrotation
						JOINT RightArm
						{
							OFFSET 11.284140 -0.000016 -0.000006
							CHANNELS 3 Zrotation Yrotation Xrotation
							JOINT RightForeArm
							{
								OFFSET 33.000088 0.000015 0.000002
								CHANNELS 3 Zrotation Yrotation Xrotation
								JOINT RightHand
								{
									OFFSET 25.199776 0.000133 0.000416
									CHANNELS 3 Zrotation Yrotation Xrotation
									End Site
									{
										OFFSET 0.000000 0.000000 0.000000
									}
								}
							}
						}
					}
				}
			}
		}
	}
}
MOTION
Frames: 6
Frame Time: 0.033333
-15.348207 0.000000 464.565508 0.000000 -84.910508 0.000000 -1.646151 90.794739 0.547269 92.907466 6.117101 176.890394 169.221666 -22.146895 174.067562 -37.258675 0.070252 -3.978185 81.827394 -0.673624 -15.316602 21.454551 0.003090 -0.000001 177.098172 -5.200996 -170.050824 -23.450283 4.216370 12.564829 87.276868 -8.229860 2.689890 21.454558 -0.003097 -0.000016 10.099516 2.010953 -0.268742 10.186162 4.037636 -0.359477 9.867207 4.035511 -0.383879 -5.766996 -5.859628 -5.711118 -24.658841 5.740562 -10.355380 167.985784 -77.073405 10.835920 -30.175465 56.373834 28.974892 -40.190957 -18.388300 1.683854 11.303762 -12.585661 4.240704 138.770046 69.838397 -41.133902 -7.925690 -54.969325 -38.136692 -31.547281 18.287509 -1.497589 8.803544 3.350493 -17.678087 
-14.726585 0.000000 464.551698 0.000000 -86.584112 0.000000 -1.334912 90.800980 1.195782 93.977394 6.054959 178.565374 167.203659 -21.904010 174.915844 -42.356073 0.649322 -4.405848 80.615685 -0.576541 -15.470501 21.454551 0.003093 0.000000 178.024468 -5.301503 -169.931446 -23.703337 3.849976 12.504802 87.147634 -8.131514 2.981420 21.454558 -0.003107 -0.000019 9.995208 2.041495 -0.219613 9.979218 4.094172 -0.262361 9.660239 4.092656 -0.287115 -5.275339 -5.261464 -5.733970 -23.595560 5.225433 -9.854506 166.395388 -77.392327 12.443923 -32.982762 58.033809 26.616465 -41.708519 -18.325543 1.721091 12.147372 -14.556900 3.543042 137.447039 69.289305 -42.528006 -10.277662 -54.918437 -32.577000 -29.745187 18.790720 -1.493075 12.618831 4.406311 -13.826513 
-14.055731 0.000000 464.515924 0.000000 -88.171317 0.000000 -1.037352 90.807297 1.592157 94.887201 5.937055 179.890893 165.424094 -21.628696 176.312550 -47.204701 0.823588 -3.197708 81.775382 -1.248494 -15.221579 21.454551 0.003092 -0.000002 178.697829 -5.113013 -169.828624 -24.109719 3.563954 12.272346 86.932640 -7.911568 3.273647 21.454557 -0.003106 -0.000016 9.865784 2.048785 -0.155396 9.722459 4.103269 -0.138079 9.403475 4.102487 -0.162892 -4.458187 -4.681562 -5.647837 -23.039891 4.961986 -9.398525 166.930219 -77.314395 11.902188 -35.639183 58.698878 25.058796 -44.160178 -18.204942 1.783014 12.306403 -13.777307 3.132989 137.288565 68.963833 -42.716310 -12.932235 -54.315331 -26.202636 -29.251378 19.181550 -1.508307 13.813353 3.949081 -12.399491 
-13.343860 0.000000 464.459099 0.000000 -89.669782 0.000000 -0.784294 90.831467 1.782751 95.544536 5.677213 -179.159023 163.961751 -20.913105 177.275470 -51.604736 1.277723 -1.604748 84.327769 -2.122854 -15.486173 21.454551 0.003101 -0.000001 179.141382 -4.551295 -169.722811 -24.451712 3.402872 11.840886 86.711369 -7.568554 3.485132 21.454555 -0.003112 -0.000017 9.711330 2.018634 -0.093922 9.415239 4.038104 -0.023247 9.096279 4.038008 -0.047653 -3.778090 -4.385714 -5.441917 -22.561880 5.005344 -9.061125 166.390662 -77.251413 12.454686 -37.230145 58.929028 24.271658 -47.288449 -17.895152 1.856927 11.084737 -12.018313 4.084185 136.609357 69.174442 -43.391502 -15.721456 -53.596310 -20.158777 -30.287446 19.004122 -1.517496 14.134935 4.979288 -11.404888 
-12.599186 0.000000 464.382138 0.000000 268.921389 0.000000 -0.510154 90.844887 1.832271 96.157354 5.349891 -178.494608 163.230265 -19.939699 177.788280 -55.006341 1.797905 -0.938823 86.773203 -2.416056 -16.216239 21.454551 0.003099 -0.000000 179.509939 -3.839907 -170.314824 -24.836154 3.423198 11.678051 86.575947 -7.397138 3.800492 21.454558 -0.003100 -0.000017 9.589540 1.961145 -0.031431 9.173175 3.918486 0.092800 8.854268 3.919102 0.069105 -3.351248 -4.060086 -5.261078 -22.193884 4.920977 -8.703118 165.488817 -77.273031 13.372814 -38.199233 58.826398 24.058812 -50.738190 -17.430291 1.936489 9.548727 -10.882963 5.010760 135.469330 69.672601 -44.511472 -17.914623 -52.495191 -17.688477 -32.338863 19.220115 -1.574181 13.576320 6.550177 -9.569047 
-11.829923 0.000000 464.285954 0.000000 267.603155 0.000000 -0.155603 90.861847 1.783325 96.839301 5.035776 -178.022883 163.146650 -18.823301 178.105338 -57.128320 2.288872 -0.636069 88.374096 -2.395852 -16.105914 21.454553 0.003085 0.000001 -179.943123 -3.215901 -171.139897 -25.032761 3.250467 11.607854 86.415656 -7.254006 4.319353 21.454558 -0.003109 -0.000016 9.509194 1.901898 0.027923 9.013877 3.795730 0.204053 8.695019 3.797027 0.181101 -3.034296 -3.871440 -5.150994 -21.887971 4.878728 -8.487074 164.368366 -77.377021 14.509624 -39.111596 58.741751 23.858973 -53.736329 -17.040263 2.011531 8.125200 -10.017657 5.969351 133.949845 70.154635 -46.017266 -19.265010 -51.126049 -17.439782 -35.314841 19.996373 -1.691896 12.621989 6.912891 -8.086530 
